<svg width="390" height="844" viewBox="0 0 390 844" fill="none" xmlns="http://www.w3.org/2000/svg">
<g clip-path="url(#clip0_74_2)">
<rect width="390" height="844" fill="#FBFCFF"/>
<rect x="11.8286" y="10.858" width="230.66" height="829.155" fill="#FBFCFF"/>
<g filter="url(#filter0_f_74_2)">
<ellipse cx="41" cy="53.5" rx="41" ry="53.5" fill="url(#paint0_linear_74_2)"/>
</g>
<g filter="url(#filter1_f_74_2)">
<path fill-rule="evenodd" clip-rule="evenodd" d="M405.084 728.042C400.118 726.712 394.87 726 389.444 726C358.271 726 333 749.505 333 778.5C333 807.495 358.271 831 389.444 831C394.87 831 400.118 830.288 405.084 828.958V728.042Z" fill="url(#paint1_linear_74_2)"/>
</g>
</g>
<rect x="0.25" y="0.25" width="389.5" height="843.5" stroke="black" stroke-width="0.5"/>
<defs>
<filter id="filter0_f_74_2" x="-44" y="-44" width="170" height="195" filterUnits="userSpaceOnUse" color-interpolation-filters="sRGB">
<feFlood flood-opacity="0" result="BackgroundImageFix"/>
<feBlend mode="normal" in="SourceGraphic" in2="BackgroundImageFix" result="shape"/>
<feGaussianBlur stdDeviation="22" result="effect1_foregroundBlur_74_2"/>
</filter>
<filter id="filter1_f_74_2" x="289" y="682" width="160.084" height="193" filterUnits="userSpaceOnUse" color-interpolation-filters="sRGB">
<feFlood flood-opacity="0" result="BackgroundImageFix"/>
<feBlend mode="normal" in="SourceGraphic" in2="BackgroundImageFix" result="shape"/>
<feGaussianBlur stdDeviation="22" result="effect1_foregroundBlur_74_2"/>
</filter>
<linearGradient id="paint0_linear_74_2" x1="17.9527" y1="2.13499e-06" x2="119.672" y2="70.5933" gradientUnits="userSpaceOnUse">
<stop stop-color="#FFE600"/>
<stop offset="0.40939" stop-color="#FFF06A" stop-opacity="0.59061"/>
<stop offset="1" stop-color="#FFF177" stop-opacity="0"/>
</linearGradient>
<linearGradient id="paint1_linear_74_2" x1="389.444" y1="726" x2="389.444" y2="831" gradientUnits="userSpaceOnUse">
<stop stop-color="#97E9FB"/>
<stop offset="1" stop-color="#97E9FB" stop-opacity="0"/>
</linearGradient>
<clipPath id="clip0_74_2">
<rect width="390" height="844" fill="white"/>
</clipPath>
</defs>
</svg>
