<svg width="288" height="144" viewBox="0 0 288 144" fill="none" xmlns="http://www.w3.org/2000/svg">
    <g clip-path="url(#clip0_2656_246012)">
        <rect y="0.658447" width="288" height="143.122" rx="7.02439" fill="white"/>
        <g clip-path="url(#clip1_2656_246012)">
            <path d="M53.3767 213.147V40.3267C53.3767 26.5601 64.558 15.4001 78.3508 15.4001H208.771C222.564 15.4001 233.745 26.5601 233.745 40.3267V213.147" stroke="#C5CEDB" stroke-width="1.7561"/>
            <path d="M78.3513 22.3232C68.3898 22.3232 60.3144 30.3832 60.3144 40.3258V216.658H226.809V40.3258C226.809 30.3832 218.733 22.3232 208.772 22.3232H192.816C191.283 22.3232 190.041 23.5632 190.041 25.0929V26.4777C190.041 31.4489 186.003 35.4789 181.023 35.4789H106.1C101.12 35.4789 97.0818 31.4489 97.0818 26.4777V25.0929C97.0818 23.5632 95.8395 22.3232 94.3069 22.3232H78.3513Z" fill="#ECF0F6"/>
        </g>
        <g filter="url(#filter0_d_2656_246012)">
            <rect x="31.6097" y="82.3169" width="224.78" height="31.3939" rx="6.27878" fill="white" shape-rendering="crispEdges"/>
            <path d="M48.671 101.735V94.2139H47.7328V97.4661H43.605V94.2139H42.6669V101.735H43.605V98.3104H47.7328V101.735H48.671ZM51.8693 101.047C51.2178 101.047 50.7331 100.713 50.7331 100.14C50.7331 99.5769 51.1084 99.2798 51.9631 99.2225L53.4746 99.1235V99.6394C53.4746 100.442 52.7918 101.047 51.8693 101.047ZM51.7026 101.834C52.4531 101.834 53.0681 101.505 53.4329 100.906H53.5163V101.735H54.371V97.8883C54.371 96.7208 53.6049 96.0172 52.2342 96.0172C51.0354 96.0172 50.1494 96.6113 50.0295 97.513H50.9364C51.0615 97.07 51.5306 96.8146 52.2029 96.8146C53.042 96.8146 53.4746 97.1951 53.4746 97.8883V98.399L51.8537 98.498C50.5455 98.5762 49.8054 99.1547 49.8054 100.161C49.8054 101.187 50.6133 101.834 51.7026 101.834ZM58.8498 100.036H57.943C58.1045 101.067 58.9488 101.828 60.3091 101.828C61.8831 101.828 62.9151 100.692 62.9151 98.9046C62.9151 97.1534 61.8883 96.0172 60.3144 96.0172C58.9384 96.0172 58.0993 96.8355 57.943 97.8361H58.8498C58.9958 97.2785 59.4961 96.825 60.3144 96.825C61.2004 96.825 61.8623 97.4557 61.9665 98.4563H59.3658V99.2069H61.9822C61.904 100.301 61.2525 101.021 60.3144 101.021C59.5482 101.021 59.0166 100.671 58.8498 100.036ZM65.1232 99.1756L67.3747 101.735H68.537L65.8633 98.7638L68.438 96.1162H67.3487L65.1232 98.4668H64.8782V96.1162H63.9818V101.735H64.8782V99.1756H65.1232ZM72.0846 96.0172C71.3184 96.0172 70.6461 96.4081 70.2865 97.0544H70.2031V96.1162H69.3483V103.611H70.2448V100.89H70.3282C70.6357 101.484 71.2819 101.834 72.0846 101.834C73.5126 101.834 74.4455 100.682 74.4455 98.9254C74.4455 97.1586 73.5178 96.0172 72.0846 96.0172ZM71.8709 101.026C70.8598 101.026 70.2187 100.213 70.2187 98.9254C70.2187 97.6329 70.8598 96.825 71.8761 96.825C72.9028 96.825 73.5178 97.612 73.5178 98.9254C73.5178 100.239 72.9028 101.026 71.8709 101.026ZM77.253 101.047C76.6015 101.047 76.1168 100.713 76.1168 100.14C76.1168 99.5769 76.4921 99.2798 77.3468 99.2225L78.8583 99.1235V99.6394C78.8583 100.442 78.1755 101.047 77.253 101.047ZM77.0863 101.834C77.8368 101.834 78.4518 101.505 78.8166 100.906H78.9V101.735H79.7547V97.8883C79.7547 96.7208 78.9886 96.0172 77.6179 96.0172C76.4191 96.0172 75.5331 96.6113 75.4132 97.513H76.3201C76.4452 97.07 76.9143 96.8146 77.5866 96.8146C78.4257 96.8146 78.8583 97.1951 78.8583 97.8883V98.399L77.2374 98.498C75.9292 98.5762 75.1891 99.1547 75.1891 100.161C75.1891 101.187 75.997 101.834 77.0863 101.834ZM84.7721 101.735H85.6685V96.1162H84.7721V98.4407H81.9681V96.1162H81.0716V101.735H81.9681V99.1912H84.7721V101.735ZM90.6841 98.7482L92.5135 96.6009H91.4503L89.6261 98.7691V98.8108L91.4503 100.979H92.5135L90.6841 98.8316V98.7482ZM93.1806 98.7482L95.01 96.6009H93.9467L92.1174 98.7691V98.8108L93.9415 100.979H95.01L93.1806 98.8316V98.7482ZM97.9634 98.9671L98.2083 95.0582H101.085V100.89H97.437V100.828C97.807 100.385 97.9113 99.8166 97.9634 98.9671ZM96.5875 101.735H102.091V103.22H102.962V100.89H102.023V94.2139H97.3692L97.0826 98.9463C97.0253 99.9313 96.822 100.598 96.2747 100.89H95.7171V103.22H96.5875V101.735ZM106.092 101.834C107.692 101.834 108.683 100.729 108.683 98.9254C108.683 97.1169 107.692 96.0172 106.092 96.0172C104.492 96.0172 103.502 97.1169 103.502 98.9254C103.502 100.729 104.492 101.834 106.092 101.834ZM106.092 101.026C105.029 101.026 104.43 100.254 104.43 98.9254C104.43 97.5912 105.029 96.825 106.092 96.825C107.155 96.825 107.755 97.5912 107.755 98.9254C107.755 100.254 107.155 101.026 106.092 101.026ZM110.646 101.735V97.7371H110.745L112.522 101.578H113.22L114.998 97.7371H115.097V101.735H115.998V96.1162H114.951L112.934 100.473H112.85L110.839 96.1162H109.749V101.735H110.646ZM119.661 101.834C121.261 101.834 122.251 100.729 122.251 98.9254C122.251 97.1169 121.261 96.0172 119.661 96.0172C118.06 96.0172 117.07 97.1169 117.07 98.9254C117.07 100.729 118.06 101.834 119.661 101.834ZM119.661 101.026C118.597 101.026 117.998 100.254 117.998 98.9254C117.998 97.5912 118.597 96.825 119.661 96.825C120.724 96.825 121.323 97.5912 121.323 98.9254C121.323 100.254 120.724 101.026 119.661 101.026ZM124.214 101.735L127.013 97.5443H127.096V101.735H127.993V96.1162H127.096L124.297 100.307H124.214V96.1162H123.318V101.735H124.214ZM123.844 93.6249C123.844 94.5943 124.553 95.3344 125.626 95.3344C126.7 95.3344 127.419 94.5943 127.419 93.6249H126.606C126.606 94.193 126.241 94.7194 125.626 94.7194C125.022 94.7194 124.657 94.193 124.657 93.6249H123.844ZM131.212 98.7482V98.8316L129.382 100.979H130.451L132.275 98.8108V98.7691L130.446 96.6009H129.382L131.212 98.7482ZM133.708 98.7482V98.8316L131.879 100.979H132.942L134.766 98.8108V98.7691L132.942 96.6009H131.879L133.708 98.7482Z" fill="black"/>
            <rect x="235.482" y="92.1768" width="11.6785" height="11.6785" rx="2.072" stroke="black" stroke-width="0.87903"/>
            <path fill-rule="evenodd" clip-rule="evenodd" d="M241.88 95.3292C241.88 95.0788 241.677 94.8757 241.426 94.8757C241.176 94.8757 240.973 95.0788 240.973 95.3292V97.4572H238.635C238.385 97.4572 238.182 97.6602 238.182 97.9107C238.182 98.1611 238.385 98.3641 238.635 98.3641H240.973V100.701C240.973 100.951 241.176 101.155 241.426 101.155C241.677 101.155 241.88 100.951 241.88 100.701V98.3641H244.007C244.258 98.3641 244.461 98.1611 244.461 97.9107C244.461 97.6602 244.258 97.4572 244.007 97.4572H241.88V95.3292Z" fill="black"/>
        </g>
    </g>
    <defs>
        <filter id="filter0_d_2656_246012" x="24.4168" y="76.3227" width="239.166" height="45.78" filterUnits="userSpaceOnUse" color-interpolation-filters="sRGB">
            <feFlood flood-opacity="0" result="BackgroundImageFix"/>
            <feColorMatrix in="SourceAlpha" type="matrix" values="0 0 0 0 0 0 0 0 0 0 0 0 0 0 0 0 0 0 127 0" result="hardAlpha"/>
            <feOffset dy="1.19883"/>
            <feGaussianBlur stdDeviation="3.59649"/>
            <feComposite in2="hardAlpha" operator="out"/>
            <feColorMatrix type="matrix" values="0 0 0 0 0 0 0 0 0 0 0 0 0 0 0 0 0 0 0.13 0"/>
            <feBlend mode="normal" in2="BackgroundImageFix" result="effect1_dropShadow_2656_246012"/>
            <feBlend mode="normal" in="SourceGraphic" in2="effect1_dropShadow_2656_246012" result="shape"/>
        </filter>
        <clipPath id="clip0_2656_246012">
            <rect y="0.658447" width="288" height="143.122" rx="7.02439" fill="white"/>
        </clipPath>
        <clipPath id="clip1_2656_246012">
            <rect width="181.756" height="195.805" fill="white" transform="translate(52.6829 14.7073)"/>
        </clipPath>
    </defs>
</svg>
