<svg width="288" height="119" viewBox="0 0 288 119" fill="none" xmlns="http://www.w3.org/2000/svg">
    <g clip-path="url(#clip0_2656_246029)">
        <rect y="0.780518" width="288" height="117.659" rx="7.02439" fill="white"/>
        <g clip-path="url(#clip1_2656_246029)">
            <path d="M53.3767 213.269V40.4488C53.3767 26.6822 64.558 15.5222 78.3508 15.5222H208.771C222.564 15.5222 233.745 26.6822 233.745 40.4488V213.269" stroke="#C5CEDB" stroke-width="1.7561"/>
            <path d="M78.3513 22.4453C68.3898 22.4453 60.3144 30.5053 60.3144 40.4478V216.78H226.809V40.4478C226.809 30.5053 218.733 22.4453 208.772 22.4453H192.816C191.283 22.4453 190.041 23.6853 190.041 25.2149V26.5997C190.041 31.571 186.003 35.601 181.023 35.601H106.1C101.12 35.601 97.0818 31.571 97.0818 26.5997V25.2149C97.0818 23.6853 95.8395 22.4453 94.3069 22.4453H78.3513Z" fill="#ECF0F6"/>
        </g>
        <g filter="url(#filter0_d_2656_246029)">
            <rect x="31.6097" y="53.4634" width="224.78" height="31.1235" rx="5.7636" fill="white" fill-opacity="0.9" shape-rendering="crispEdges"/>
            <path d="M104.613 71.853V64.9494H103.383V67.8056H100.025V64.9494H98.7904V71.853H100.025V68.8724H103.383V71.853H104.613ZM107.846 71.0062C107.32 71.0062 106.942 70.7431 106.942 70.3029C106.942 69.8771 107.253 69.6379 107.918 69.5949L109.1 69.5183V69.9345C109.1 70.5421 108.564 71.0062 107.846 71.0062ZM107.497 71.9391C108.181 71.9391 108.755 71.6425 109.047 71.1354H109.128V71.853H110.272V68.2792C110.272 67.1693 109.516 66.5138 108.172 66.5138C106.928 66.5138 106.062 67.1023 105.966 68.0256H107.086C107.196 67.6716 107.569 67.4802 108.114 67.4802C108.755 67.4802 109.1 67.7673 109.1 68.2792V68.7193L107.751 68.8007C106.478 68.8772 105.765 69.4226 105.765 70.3699C105.765 71.3268 106.487 71.9391 107.497 71.9391ZM114.777 70.1403H113.643C113.777 71.2119 114.605 71.9583 115.949 71.9583C117.485 71.9583 118.466 70.9057 118.466 69.2217C118.466 67.5616 117.485 66.5138 115.954 66.5138C114.614 66.5138 113.782 67.2984 113.648 68.3462H114.782C114.897 67.8678 115.308 67.5089 115.949 67.5089C116.638 67.5089 117.16 67.973 117.241 68.7433H115.146V69.5901H117.255C117.193 70.4321 116.681 70.9584 115.949 70.9584C115.337 70.9584 114.902 70.6665 114.777 70.1403ZM120.943 69.6044L122.718 71.853H124.158L121.91 69.0351L124.058 66.6191H122.69L120.934 68.7146H120.704V66.6191H119.518V71.853H120.704V69.6044H120.943ZM127.837 66.533C127.119 66.533 126.511 66.8918 126.21 67.485H126.129V66.6191H124.985V73.5945H126.172V71.0588H126.253C126.521 71.6138 127.1 71.9391 127.851 71.9391C129.171 71.9391 129.994 70.9057 129.994 69.236C129.994 67.5568 129.162 66.533 127.837 66.533ZM127.463 70.9297C126.655 70.9297 126.153 70.2838 126.148 69.236C126.153 68.1931 126.66 67.5424 127.468 67.5424C128.282 67.5424 128.774 68.1787 128.774 69.236C128.774 70.2934 128.286 70.9297 127.463 70.9297ZM132.85 71.0062C132.324 71.0062 131.946 70.7431 131.946 70.3029C131.946 69.8771 132.257 69.6379 132.922 69.5949L134.103 69.5183V69.9345C134.103 70.5421 133.567 71.0062 132.85 71.0062ZM132.501 71.9391C133.185 71.9391 133.759 71.6425 134.051 71.1354H134.132V71.853H135.275V68.2792C135.275 67.1693 134.519 66.5138 133.175 66.5138C131.931 66.5138 131.065 67.1023 130.97 68.0256H132.089C132.199 67.6716 132.572 67.4802 133.118 67.4802C133.759 67.4802 134.103 67.7673 134.103 68.2792V68.7193L132.754 68.8007C131.482 68.8772 130.769 69.4226 130.769 70.3699C130.769 71.3268 131.491 71.9391 132.501 71.9391ZM140.011 71.853H141.198V66.6191H140.011V68.6859H137.748V66.6191H136.562V71.853H137.748V69.6331H140.011V71.853ZM146.09 69.1164L147.755 67.1549H146.578L144.904 69.1308V69.1691L146.564 71.1402H147.755L146.09 69.1739V69.1164ZM148.483 69.1164L150.147 67.1549H148.966L147.291 69.1308V69.1691L148.951 71.1402H150.147L148.483 69.1739V69.1164ZM153.228 69.0638L153.424 66.0163H155.773V70.7861H152.773V70.7096C153.079 70.346 153.18 69.8245 153.228 69.0638ZM152.017 71.853H156.744V73.2165H157.864V70.7861H157.003V64.9494H152.333L152.089 68.9825C152.032 69.9106 151.874 70.4704 151.386 70.7861H150.893V73.2165H152.017V71.853ZM161.001 71.9583C162.566 71.9583 163.518 70.9345 163.518 69.236C163.518 67.5424 162.561 66.5138 161.001 66.5138C159.447 66.5138 158.485 67.5472 158.485 69.236C158.485 70.9345 159.432 71.9583 161.001 71.9583ZM161.001 70.9632C160.174 70.9632 159.7 70.3316 159.7 69.236C159.7 68.1452 160.174 67.5089 161.001 67.5089C161.824 67.5089 162.298 68.1452 162.298 69.236C162.298 70.3316 161.829 70.9632 161.001 70.9632ZM165.704 71.853V68.2936H165.794L167.235 71.609H168.086L169.531 68.2936H169.617V71.853H170.756V66.6191H169.273L167.718 70.2216H167.632L166.082 66.6191H164.57V71.853H165.704ZM174.329 71.9583C175.893 71.9583 176.845 70.9345 176.845 69.236C176.845 67.5424 175.889 66.5138 174.329 66.5138C172.774 66.5138 171.812 67.5472 171.812 69.236C171.812 70.9345 172.76 71.9583 174.329 71.9583ZM174.329 70.9632C173.501 70.9632 173.028 70.3316 173.028 69.236C173.028 68.1452 173.501 67.5089 174.329 67.5089C175.152 67.5089 175.625 68.1452 175.625 69.236C175.625 70.3316 175.157 70.9632 174.329 70.9632ZM179.069 71.853L181.342 68.3653H181.428V71.853H182.595V66.6191H181.428L179.151 70.0829H179.069V66.6191H177.897V71.853H179.069ZM178.443 64.2269C178.443 65.1742 179.141 65.8632 180.198 65.8632C181.251 65.8632 181.954 65.1742 181.954 64.2269H181.021C181.012 64.7389 180.701 65.1503 180.198 65.1503C179.696 65.1503 179.385 64.7389 179.38 64.2269H178.443ZM185.59 69.1164V69.1739L183.92 71.1402H185.116L186.776 69.1691V69.1308L185.102 67.1549H183.92L185.59 69.1164ZM187.977 69.1164V69.1739L186.312 71.1402H187.503L189.163 69.1691V69.1308L187.494 67.1549H186.312L187.977 69.1164Z" fill="black"/>
            <path d="M203.009 69.0638L203.205 66.0163H205.554V70.7861H202.555V70.7096C202.861 70.346 202.961 69.8245 203.009 69.0638ZM201.799 71.853H206.526V73.2165H207.645V70.7861H206.784V64.9494H202.115L201.871 68.9825C201.813 69.9106 201.655 70.4704 201.167 70.7861H200.674V73.2165H201.799V71.853ZM210.783 71.9583C212.347 71.9583 213.299 70.9345 213.299 69.236C213.299 67.5424 212.342 66.5138 210.783 66.5138C209.228 66.5138 208.266 67.5472 208.266 69.236C208.266 70.9345 209.214 71.9583 210.783 71.9583ZM210.783 70.9632C209.955 70.9632 209.482 70.3316 209.482 69.236C209.482 68.1452 209.955 67.5089 210.783 67.5089C211.606 67.5089 212.079 68.1452 212.079 69.236C212.079 70.3316 211.611 70.9632 210.783 70.9632ZM216.652 70.9632C215.81 70.9632 215.332 70.3651 215.332 69.3174C215.332 68.3127 215.815 67.7338 216.652 67.7338C217.49 67.7338 217.973 68.3127 217.973 69.3174C217.973 70.3651 217.49 70.9632 216.652 70.9632ZM215.054 67.7625C215.198 66.5664 215.619 65.9014 216.949 65.8488L217.552 65.8249C218.509 65.7914 218.848 65.5713 218.848 65.5713V64.5858C218.844 64.5906 218.293 64.7915 217.48 64.825L216.863 64.8489C214.877 64.9254 214.112 66.2363 214.112 68.8246C214.112 70.9297 215.05 71.9583 216.667 71.9583C218.226 71.9583 219.193 70.944 219.193 69.2935C219.193 67.729 218.26 66.7769 216.892 66.7769C216.026 66.7769 215.452 67.174 215.136 67.7625H215.054ZM222.053 71.0062C221.527 71.0062 221.149 70.7431 221.149 70.3029C221.149 69.8771 221.46 69.6379 222.125 69.5949L223.307 69.5183V69.9345C223.307 70.5421 222.771 71.0062 222.053 71.0062ZM221.704 71.9391C222.388 71.9391 222.962 71.6425 223.254 71.1354H223.335V71.853H224.479V68.2792C224.479 67.1693 223.723 66.5138 222.378 66.5138C221.134 66.5138 220.269 67.1023 220.173 68.0256H221.292C221.402 67.6716 221.776 67.4802 222.321 67.4802C222.962 67.4802 223.307 67.7673 223.307 68.2792V68.7193L221.957 68.8007C220.685 68.8772 219.972 69.4226 219.972 70.3699C219.972 71.3268 220.694 71.9391 221.704 71.9391ZM227.966 67.4515C228.492 67.4515 228.745 67.7051 228.745 68.0974C228.745 68.5232 228.458 68.7576 227.87 68.7576H226.937V67.4515H227.966ZM227.942 69.5375C228.602 69.5375 228.956 69.7767 228.956 70.279C228.956 70.7574 228.635 71.0206 228.047 71.0206H226.937V69.5375H227.942ZM225.765 71.853H228.272C229.434 71.853 230.142 71.255 230.142 70.3412C230.142 69.7049 229.688 69.2073 228.999 69.1356V69.0495C229.521 68.9586 229.908 68.4801 229.908 67.9443C229.908 67.131 229.291 66.6191 228.238 66.6191H225.765V71.853ZM232.405 71.853L234.677 68.3653H234.763V71.853H235.931V66.6191H234.763L232.486 70.0829H232.405V66.6191H231.233V71.853H232.405ZM241.231 66.6191H236.82V67.5663H238.432V71.853H239.619V67.5663H241.231V66.6191ZM244.201 69.1308C244.785 69.1308 245.163 69.48 245.163 70.0159C245.163 70.5469 244.79 70.9057 244.201 70.9057H243.307V69.1308H244.201ZM242.12 71.853H244.345C245.565 71.853 246.345 71.1402 246.345 70.0207C246.345 68.9012 245.565 68.1883 244.345 68.1883H243.307V66.6191H242.12V71.853Z" fill="#007AFF"/>
            <path d="M44.6635 64.7867C42.7115 64.7867 41.4915 66.1789 41.4915 68.3988C41.4915 70.6091 42.6828 72.0157 44.6635 72.0157C46.6346 72.0157 47.8211 70.6043 47.8211 68.3988C47.8211 66.1837 46.625 64.7867 44.6635 64.7867ZM44.6635 65.5809C46.0748 65.5809 46.936 66.6717 46.936 68.3988C46.936 70.1116 46.0796 71.2215 44.6635 71.2215C43.2282 71.2215 42.3766 70.1116 42.3766 68.3988C42.3766 66.6717 43.2569 65.5809 44.6635 65.5809ZM52.8055 66.6956H48.6337V67.3845H50.3082V71.853H51.131V67.3845H52.8055V66.6956ZM54.5941 71.853V68.1835H54.685L56.3164 71.7095H56.9575L58.5889 68.1835H58.6798V71.853H59.5075V66.6956H58.5459L56.6944 70.6952H56.6178L54.7711 66.6956H53.7712V71.853H54.5941ZM62.9754 67.3319C63.7935 67.3319 64.3389 67.9347 64.358 68.8485H61.5162C61.5784 67.9347 62.1525 67.3319 62.9754 67.3319ZM64.3341 70.5182C64.1188 70.9727 63.6691 71.2167 63.0041 71.2167C62.1286 71.2167 61.5592 70.5709 61.5162 69.5518V69.5135H65.224V69.1978C65.224 67.5951 64.3771 66.6047 62.9849 66.6047C61.5688 66.6047 60.6598 67.6572 60.6598 69.2791C60.6598 70.9105 61.5544 71.9439 62.9849 71.9439C64.114 71.9439 64.9082 71.4033 65.157 70.5182H64.3341ZM69.7683 71.853H70.5911V66.6956H69.7683V68.8294H67.1943V66.6956H66.3714V71.853H67.1943V69.5183H69.7683V71.853ZM72.8151 71.853L75.3842 68.0065H75.4608V71.853H76.2837V66.6956H75.4608L72.8916 70.5421H72.8151V66.6956H71.9922V71.853H72.8151ZM81.426 66.6956H77.2541V67.3845H78.9286V71.853H79.7515V67.3845H81.426V66.6956ZM84.2336 69.0399C84.9082 69.0399 85.3483 69.4561 85.3483 70.102C85.3483 70.7431 84.913 71.1641 84.2336 71.1641H83.2146V69.0399H84.2336ZM82.3917 71.853H84.2336C85.4153 71.853 86.1712 71.1737 86.1712 70.102C86.1712 69.0303 85.4153 68.351 84.2336 68.351H83.2146V66.6956H82.3917V71.853Z" fill="#007AFF"/>
        </g>
    </g>
    <defs>
        <filter id="filter0_d_2656_246029" x="24.4168" y="47.4692" width="239.166" height="45.5095" filterUnits="userSpaceOnUse" color-interpolation-filters="sRGB">
            <feFlood flood-opacity="0" result="BackgroundImageFix"/>
            <feColorMatrix in="SourceAlpha" type="matrix" values="0 0 0 0 0 0 0 0 0 0 0 0 0 0 0 0 0 0 127 0" result="hardAlpha"/>
            <feOffset dy="1.19883"/>
            <feGaussianBlur stdDeviation="3.59649"/>
            <feComposite in2="hardAlpha" operator="out"/>
            <feColorMatrix type="matrix" values="0 0 0 0 0 0 0 0 0 0 0 0 0 0 0 0 0 0 0.13 0"/>
            <feBlend mode="normal" in2="BackgroundImageFix" result="effect1_dropShadow_2656_246029"/>
            <feBlend mode="normal" in="SourceGraphic" in2="effect1_dropShadow_2656_246029" result="shape"/>
        </filter>
        <clipPath id="clip0_2656_246029">
            <rect y="0.780518" width="288" height="117.659" rx="7.02439" fill="white"/>
        </clipPath>
        <clipPath id="clip1_2656_246029">
            <rect width="181.756" height="195.805" fill="white" transform="translate(52.6829 14.8293)"/>
        </clipPath>
    </defs>
</svg>
