<svg width="288" height="138" viewBox="0 0 288 138" fill="none" xmlns="http://www.w3.org/2000/svg">
    <rect y="0.658447" width="288" height="137" rx="7.02439" fill="white"/>
    <path d="M52 14.6584V110.396C52 120.482 63.1584 128.658 76.9231 128.658H207.077C220.842 128.658 232 120.482 232 110.396V14.6584" stroke="#C5CEDB" stroke-width="1.7561"/>
    <path d="M58 105.097C58 114.796 65.8623 122.658 75.561 122.658H207.439C217.138 122.658 225 114.796 225 105.097V14.6584H58V105.097Z" fill="#ECF0F6"/>
    <g filter="url(#filter0_d_2656_246070)">
        <g clip-path="url(#clip0_2656_246070)">
            <g filter="url(#filter1_d_2656_246070)">
                <rect x="31" y="49.9753" width="225" height="58" fill="white"/>
            </g>
            <path d="M43.994 78.6856C43.994 78.8152 44.0387 78.9253 44.1343 79.0161L49.2357 83.9475C49.3186 84.0317 49.427 84.0771 49.5482 84.0771C49.7969 84.0771 49.9882 83.8891 49.9882 83.6299C49.9882 83.5068 49.9372 83.3966 49.867 83.3189L45.0717 78.6856L49.867 74.0523C49.9372 73.968 49.9882 73.8579 49.9882 73.7347C49.9882 73.482 49.7969 73.2876 49.5482 73.2876C49.427 73.2876 49.3186 73.333 49.2357 73.4172L44.1343 78.3551C44.0387 78.4458 43.994 78.556 43.994 78.6856Z" fill="#2E7CF6"/>
            <path d="M98.5407 78.6856C98.5407 78.556 98.4961 78.4458 98.4004 78.3551L93.3054 73.4172C93.2161 73.333 93.1141 73.2876 92.9866 73.2876C92.7442 73.2876 92.5466 73.482 92.5466 73.7347C92.5466 73.8579 92.5976 73.968 92.6741 74.0523L97.463 78.6856L92.6741 83.3189C92.5976 83.3966 92.5466 83.5068 92.5466 83.6299C92.5466 83.8891 92.7442 84.0771 92.9866 84.0771C93.1141 84.0771 93.2161 84.0317 93.3054 83.9475L98.4004 79.0161C98.4961 78.9253 98.5407 78.8152 98.5407 78.6856Z" fill="#2E7CF6"/>
            <g clip-path="url(#clip1_2656_246070)">
                <path d="M142.901 80.8945C143.105 80.8945 143.279 80.7198 143.279 80.5064V73.5398L143.254 72.6018L143.805 73.1969L144.859 74.3419C144.927 74.4195 145.026 74.4583 145.119 74.4583C145.311 74.4583 145.466 74.3095 145.466 74.109C145.466 73.999 145.423 73.9214 145.355 73.8438L143.173 71.6186C143.08 71.5216 143 71.4893 142.901 71.4893C142.801 71.4893 142.721 71.5216 142.628 71.6186L140.446 73.8438C140.372 73.9214 140.329 73.999 140.329 74.109C140.329 74.3095 140.477 74.4583 140.676 74.4583C140.769 74.4583 140.874 74.4195 140.942 74.3419L141.996 73.1969L142.547 72.6018L142.522 73.5398V80.5064C142.522 80.7198 142.696 80.8945 142.901 80.8945ZM139.331 85.8752H146.464C147.672 85.8752 148.292 85.2284 148.292 83.9864V77.3756C148.292 76.1272 147.672 75.4803 146.464 75.4803H144.698V76.2824H146.445C147.133 76.2824 147.524 76.6705 147.524 77.4144V83.9411C147.524 84.6915 147.133 85.0731 146.445 85.0731H139.343C138.649 85.0731 138.271 84.6915 138.271 83.9411V77.4144C138.271 76.6705 138.649 76.2824 139.343 76.2824H141.103V75.4803H139.331C138.122 75.4803 137.503 76.1207 137.503 77.3756V83.9864C137.503 85.2348 138.122 85.8752 139.331 85.8752Z" fill="#2E7CF6"/>
            </g>
            <g clip-path="url(#clip2_2656_246070)">
                <path d="M190.251 73.9011C189.853 73.3585 188.484 72.6882 186.871 72.6882C184.938 72.6882 183.317 73.6394 183.058 74.4182V84.1339C183.058 84.5169 183.317 84.6765 183.616 84.6765C183.855 84.6765 183.995 84.6063 184.134 84.4978C184.579 84.0892 185.416 83.5913 186.871 83.5913C188.352 83.5913 189.275 84.0956 189.64 84.4659C189.78 84.5808 189.946 84.6765 190.251 84.6765C190.55 84.6765 190.716 84.568 190.862 84.4659C191.247 84.1084 192.151 83.5913 193.632 83.5913C195.086 83.5913 195.943 84.0765 196.368 84.4978C196.508 84.6063 196.647 84.6765 196.886 84.6765C197.185 84.6765 197.444 84.5169 197.444 84.1339V74.4182C197.185 73.6394 195.565 72.6882 193.632 72.6882C192.018 72.6882 190.65 73.3585 190.251 73.9011ZM183.935 74.6735C184.034 74.2714 185.21 73.4862 186.871 73.4862C188.538 73.4862 189.72 74.2777 189.813 74.6735V83.6615C189.142 83.1126 188.059 82.8061 186.871 82.8061C185.675 82.8061 184.592 83.1189 183.935 83.6743V74.6735ZM196.567 74.6735V83.6743C195.903 83.1189 194.827 82.8061 193.632 82.8061C192.443 82.8061 191.36 83.1126 190.689 83.6615V74.6735C190.782 74.2777 191.965 73.4862 193.632 73.4862C195.292 73.4862 196.461 74.2714 196.567 74.6735Z" fill="#2E7CF6"/>
            </g>
            <g clip-path="url(#clip3_2656_246070)">
                <path d="M232.883 82.4437H234.088V83.3726C234.088 84.6329 234.716 85.276 235.959 85.276H242.327C243.564 85.276 244.198 84.6264 244.198 83.3726V76.818C244.198 75.5643 243.564 74.9212 242.327 74.9212H241.122V73.9857C241.122 72.7385 240.488 72.0889 239.251 72.0889H232.883C231.639 72.0889 231.011 72.7255 231.011 73.9857V80.5468C231.011 81.8006 231.639 82.4437 232.883 82.4437ZM232.895 81.6382C232.185 81.6382 231.798 81.2549 231.798 80.5013V74.0312C231.798 73.2777 232.185 72.8944 232.895 72.8944H239.238C239.936 72.8944 240.336 73.2777 240.336 74.0312V74.9212H235.959C234.716 74.9212 234.088 75.5578 234.088 76.818V81.6382H232.895ZM235.972 84.4705C235.261 84.4705 234.874 84.0807 234.874 83.3337V76.857C234.874 76.11 235.261 75.7202 235.972 75.7202H242.315C243.012 75.7202 243.412 76.11 243.412 76.857V83.3337C243.412 84.0807 243.012 84.4705 242.315 84.4705H235.972Z" fill="#2E7CF6"/>
            </g>
            <g filter="url(#filter2_d_2656_246070)">
                <rect x="126.532" y="61.9753" width="33.7171" height="33.7171" rx="2.80976" fill="white" shape-rendering="crispEdges"/>
                <g clip-path="url(#clip4_2656_246070)">
                    <path d="M143.135 81.0219C143.339 81.0219 143.513 80.8473 143.513 80.6338V73.6672L143.488 72.7293L144.04 73.3244L145.093 74.4693C145.161 74.5469 145.26 74.5857 145.353 74.5857C145.545 74.5857 145.7 74.437 145.7 74.2364C145.7 74.1265 145.657 74.0489 145.589 73.9712L143.407 71.7461C143.314 71.649 143.234 71.6167 143.135 71.6167C143.036 71.6167 142.955 71.649 142.862 71.7461L140.681 73.9712C140.606 74.0489 140.563 74.1265 140.563 74.2364C140.563 74.437 140.712 74.5857 140.91 74.5857C141.003 74.5857 141.108 74.5469 141.176 74.4693L142.23 73.3244L142.781 72.7293L142.757 73.6672V80.6338C142.757 80.8473 142.93 81.0219 143.135 81.0219ZM139.565 86.0027H146.698C147.907 86.0027 148.526 85.3558 148.526 84.1138V77.503C148.526 76.2546 147.907 75.6078 146.698 75.6078H144.932V76.4099H146.68C147.367 76.4099 147.758 76.798 147.758 77.5418V84.0686C147.758 84.8189 147.367 85.2006 146.68 85.2006H139.577C138.883 85.2006 138.505 84.8189 138.505 84.0686V77.5418C138.505 76.798 138.883 76.4099 139.577 76.4099H141.337V75.6078H139.565C138.357 75.6078 137.737 76.2481 137.737 77.503V84.1138C137.737 85.3623 138.357 86.0027 139.565 86.0027Z" fill="#2E7CF6"/>
                </g>
            </g>
        </g>
    </g>
    <defs>
        <filter id="filter0_d_2656_246070" x="23.807" y="43.9812" width="239.386" height="72.386" filterUnits="userSpaceOnUse" color-interpolation-filters="sRGB">
            <feFlood flood-opacity="0" result="BackgroundImageFix"/>
            <feColorMatrix in="SourceAlpha" type="matrix" values="0 0 0 0 0 0 0 0 0 0 0 0 0 0 0 0 0 0 127 0" result="hardAlpha"/>
            <feOffset dy="1.19883"/>
            <feGaussianBlur stdDeviation="3.59649"/>
            <feComposite in2="hardAlpha" operator="out"/>
            <feColorMatrix type="matrix" values="0 0 0 0 0 0 0 0 0 0 0 0 0 0 0 0 0 0 0.13 0"/>
            <feBlend mode="normal" in2="BackgroundImageFix" result="effect1_dropShadow_2656_246070"/>
            <feBlend mode="normal" in="SourceGraphic" in2="effect1_dropShadow_2656_246070" result="shape"/>
        </filter>
        <filter id="filter1_d_2656_246070" x="31" y="49.7356" width="225" height="58.2398" filterUnits="userSpaceOnUse" color-interpolation-filters="sRGB">
            <feFlood flood-opacity="0" result="BackgroundImageFix"/>
            <feColorMatrix in="SourceAlpha" type="matrix" values="0 0 0 0 0 0 0 0 0 0 0 0 0 0 0 0 0 0 127 0" result="hardAlpha"/>
            <feOffset dy="-0.239766"/>
            <feColorMatrix type="matrix" values="0 0 0 0 0.756863 0 0 0 0 0.756863 0 0 0 0 0.756863 0 0 0 1 0"/>
            <feBlend mode="normal" in2="BackgroundImageFix" result="effect1_dropShadow_2656_246070"/>
            <feBlend mode="normal" in="SourceGraphic" in2="effect1_dropShadow_2656_246070" result="shape"/>
        </filter>
        <filter id="filter2_d_2656_246070" x="119.339" y="55.9812" width="48.1031" height="48.103" filterUnits="userSpaceOnUse" color-interpolation-filters="sRGB">
            <feFlood flood-opacity="0" result="BackgroundImageFix"/>
            <feColorMatrix in="SourceAlpha" type="matrix" values="0 0 0 0 0 0 0 0 0 0 0 0 0 0 0 0 0 0 127 0" result="hardAlpha"/>
            <feOffset dy="1.19883"/>
            <feGaussianBlur stdDeviation="3.59649"/>
            <feComposite in2="hardAlpha" operator="out"/>
            <feColorMatrix type="matrix" values="0 0 0 0 0 0 0 0 0 0 0 0 0 0 0 0 0 0 0.13 0"/>
            <feBlend mode="normal" in2="BackgroundImageFix" result="effect1_dropShadow_2656_246070"/>
            <feBlend mode="normal" in="SourceGraphic" in2="effect1_dropShadow_2656_246070" result="shape"/>
        </filter>
        <clipPath id="clip0_2656_246070">
            <rect x="31" y="49.9753" width="225" height="58" rx="5.61951" fill="white"/>
        </clipPath>
        <clipPath id="clip1_2656_246070">
            <rect width="14.386" height="14.386" fill="white" transform="translate(135.897 71.6824)"/>
        </clipPath>
        <clipPath id="clip2_2656_246070">
            <rect width="14.386" height="14.386" fill="white" transform="translate(183.251 71.6824)"/>
        </clipPath>
        <clipPath id="clip3_2656_246070">
            <rect width="14.386" height="14.386" fill="white" transform="translate(230.605 71.6824)"/>
        </clipPath>
        <clipPath id="clip4_2656_246070">
            <rect width="14.386" height="14.386" fill="white" transform="translate(136.132 71.8098)"/>
        </clipPath>
    </defs>
</svg>
